{"title":"Chvrches.Coachella.Festival.2014.MPEG2.AC3.1080p","uid":11078005,"size":1457190532,"categoryP":"video","categoryS":"music_videos","magnet":"?xt=urn:btih:c8c22730ddb9771eab48920e3d932da5ab10f729&amp;dn=Chvrches.Coachella.Festival.2014.MPEG2.AC3.1080p&amp;tr=udp%3A%2F%2Ftracker.openbittorrent.com%3A80&amp;tr=udp%3A%2F%2Fopen.demonii.com%3A1337&amp;tr=udp%3A%2F%2Ftracker.coppersurfer.tk%3A6969&amp;tr=udp%3A%2F%2Fexodus.desync.com%3A6969","seeders":0,"leechers":0,"uploader":"user101966","files":6,"time":1411358968,"description":"I downloaded this entire festival quite a while ago (20 odd Gigs) and apparently this was the only act I decided to keep!\n\nPreviously I'd had this as a single file but decided to break it up into single tracks A) for general convenience as well as B) the fact that there were audio sync problems with some of the songs. That seems to have disappeared by splitting them up.\n\nHere is the track list (complete show had 11 tracks):\n-----------------------------------------------------\n1. We Sink\n2. Recover\n3. Tether\n4. Under The Tide\n5. The Mother We Share\n\nHere is an example of the video quality (which is extremely high IMHO):\n-----------------------------------------------------------------------\n\nGeneral\nComplete name                            : 1. Chvrches - We Sink @ Coachella Valley Music and Arts Festival (2014-04-19).avi\nFormat                                   : AVI\nFormat/Info                              : Audio Video Interleave\nFile size                                : 254 MiB\nDuration                                 : 3mn 59s\nOverall bit rate mode                    : Variable\nOverall bit rate                         : 8 919 Kbps\n\nVideo\nID                                       : 0\nFormat                                   : MPEG Video\nFormat version                           : Version 2\nFormat profile                           : Main@High\nFormat settings, BVOP                    : Yes\nFormat settings, Matrix                  : Custom\nFormat settings, GOP                     : Variable\nCodec ID                                 : MPEG\nCodec ID/Info                            : Chromatic MPEG 1 Video I Frame\nDuration                                 : 3mn 59s\nBit rate mode                            : Variable\nBit rate                                 : 8 513 Kbps\nMaximum bit rate                         : 20.0 Mbps\nWidth                                    : 1 920 pixels\nHeight                                   : 1 080 pixels\nDisplay aspect ratio                     : 16:9\nFrame rate                               : 29.970 fps\nColor space                              : YUV\nChroma subsampling                       : 4:2:0\nBit depth                                : 8 bits\nCompression mode                         : Lossy\nBits/(Pixel*Frame)                       : 0.137\nStream size                              : 243 MiB (95%)\n\nAudio\nID                                       : 1\nFormat                                   : AC-3\nFormat/Info                              : Audio Coding 3\nMode extension                           : CM (complete main)\nFormat settings, Endianness              : Big\nCodec ID                                 : 2000\nDuration                                 : 3mn 59s\nBit rate mode                            : Constant\nBit rate                                 : 384 Kbps\nChannel(s)                               : 6 channels\nChannel positions                        : Front: L C R, Side: L R, LFE\nSampling rate                            : 48.0 KHz\nBit depth                                : 16 bits\nCompression mode                         : Lossy\nStream size                              : 11.0 MiB (4%)\nAlignment                                : Aligned on interleaves\nInterleave, duration                     : 32 ms (0.96 video frame)\n\n-----------------------------------------------------------\n\nFor those with &quot;weak&quot; machines (like me!):\n------------------------------------------\nI found optimal playback on my Win7 machine by using &quot;libavcodec&quot; [media type: Either one of or both &quot;MPEG in AVI&quot; and &quot;Other MPEG2&quot;] and turning &quot;use speed-up tricks&quot; ON. The next best option, LAV decoder with &quot;internal MPEG2&quot; set (for MPC-HC.exe), was not nearly as smooth.\n\n- user101966","torrent":{"xt":"urn:btih:c8c22730ddb9771eab48920e3d932da5ab10f729","amp;dn":"Chvrches.Coachella.Festival.2014.MPEG2.AC3.1080p","amp;tr":["udp%3A%2F%2Ftracker.openbittorrent.com%3A80","udp%3A%2F%2Fopen.demonii.com%3A1337","udp%3A%2F%2Ftracker.coppersurfer.tk%3A6969","udp%3A%2F%2Fexodus.desync.com%3A6969"],"infoHash":"c8c22730ddb9771eab48920e3d932da5ab10f729","infoHashBuffer":{"type":"Buffer","data":[200,194,39,48,221,185,119,30,171,72,146,14,61,147,45,165,171,16,247,41]},"announce":[],"urlList":[]}}